<svg xmlns="http://www.w3.org/2000/svg" width="1000" height="720"><defs><marker id="arrowhead" markerWidth="10" markerHeight="7" refX="8" refY="3.5" orient="auto" markerUnits="strokeWidth"><path d="M0,0 L10,3.5 L0,7 z" fill="#1f4b99" /></marker></defs><text x="500.0" y="35" fill="#1f4b99" font-size="20" font-family="DejaVu Sans, Arial, sans-serif" text-anchor="middle">Mapa mental: ceifadores e grampeadores</text><rect x="190.0" y="150.0" width="220" height="80" stroke="#1f4b99" fill="#f0f4ff" stroke-width="2" rx="10" ry="10" /><text x="300" y="190.0" fill="#0f172a" font-size="14" font-family="DejaVu Sans, Arial, sans-serif" text-anchor="middle" dominant-baseline="middle"><tspan x="300" dy="0">Ceifadores</tspan><tspan x="300" dy="16">(limitadores)</tspan></text><rect x="590.0" y="150.0" width="220" height="80" stroke="#1f4b99" fill="#f0f4ff" stroke-width="2" rx="10" ry="10" /><text x="700" y="190.0" fill="#0f172a" font-size="14" font-family="DejaVu Sans, Arial, sans-serif" text-anchor="middle" dominant-baseline="middle"><tspan x="700" dy="0">Grampeadores</tspan><tspan x="700" dy="16">(clampers)</tspan></text><rect x="100.0" y="315.0" width="200" height="90" stroke="#1f4b99" fill="#f0f4ff" stroke-width="2" rx="10" ry="10" /><text x="200" y="360.0" fill="#0f172a" font-size="14" font-family="DejaVu Sans, Arial, sans-serif" text-anchor="middle" dominant-baseline="middle"><tspan x="200" dy="0">S&#233;rie</tspan><tspan x="200" dy="16">- polarizado</tspan><tspan x="200" dy="16">- n&#227;o polarizado</tspan></text><rect x="300.0" y="315.0" width="200" height="90" stroke="#1f4b99" fill="#f0f4ff" stroke-width="2" rx="10" ry="10" /><text x="400" y="360.0" fill="#0f172a" font-size="14" font-family="DejaVu Sans, Arial, sans-serif" text-anchor="middle" dominant-baseline="middle"><tspan x="400" dy="0">Paralelo</tspan><tspan x="400" dy="16">- polarizado</tspan><tspan x="400" dy="16">- n&#227;o polarizado</tspan></text><rect x="490.0" y="315.0" width="220" height="90" stroke="#1f4b99" fill="#f0f4ff" stroke-width="2" rx="10" ry="10" /><text x="600" y="360.0" fill="#0f172a" font-size="14" font-family="DejaVu Sans, Arial, sans-serif" text-anchor="middle" dominant-baseline="middle"><tspan x="600" dy="0">Dire&#231;&#227;o</tspan><tspan x="600" dy="16">- para cima</tspan><tspan x="600" dy="16">- para baixo</tspan></text><rect x="690.0" y="315.0" width="220" height="90" stroke="#1f4b99" fill="#f0f4ff" stroke-width="2" rx="10" ry="10" /><text x="800" y="360.0" fill="#0f172a" font-size="14" font-family="DejaVu Sans, Arial, sans-serif" text-anchor="middle" dominant-baseline="middle"><tspan x="800" dy="0">Polariza&#231;&#227;o</tspan><tspan x="800" dy="16">- com fonte de bias</tspan><tspan x="800" dy="16">- sem bias</tspan></text><rect x="85.0" y="494.99999999999994" width="230" height="110" stroke="#1f4b99" fill="#f0f4ff" stroke-width="2" rx="10" ry="10" /><text x="200" y="550.0" fill="#0f172a" font-size="14" font-family="DejaVu Sans, Arial, sans-serif" text-anchor="middle" dominant-baseline="middle"><tspan x="200" dy="0">Efeitos pr&#225;ticos</tspan><tspan x="200" dy="16">- prote&#231;&#227;o de entrada</tspan><tspan x="200" dy="16">- recorte assim&#233;trico</tspan><tspan x="200" dy="16">- queda direta V_D</tspan></text><rect x="285.0" y="494.99999999999994" width="230" height="110" stroke="#1f4b99" fill="#f0f4ff" stroke-width="2" rx="10" ry="10" /><text x="400" y="550.0" fill="#0f172a" font-size="14" font-family="DejaVu Sans, Arial, sans-serif" text-anchor="middle" dominant-baseline="middle"><tspan x="400" dy="0">An&#225;lise por regi&#245;es</tspan><tspan x="400" dy="16">- diodo ON/OFF</tspan><tspan x="400" dy="16">- ondas senoidal, triangular, quadrada</tspan></text><rect x="485.0" y="494.99999999999994" width="230" height="110" stroke="#1f4b99" fill="#f0f4ff" stroke-width="2" rx="10" ry="10" /><text x="600" y="550.0" fill="#0f172a" font-size="14" font-family="DejaVu Sans, Arial, sans-serif" text-anchor="middle" dominant-baseline="middle"><tspan x="600" dy="0">Carga R&#8811;RC</tspan><tspan x="600" dy="16">- capacitor mant&#233;m carga</tspan><tspan x="600" dy="16">- desloca n&#237;vel DC</tspan></text><rect x="685.0" y="494.99999999999994" width="230" height="110" stroke="#1f4b99" fill="#f0f4ff" stroke-width="2" rx="10" ry="10" /><text x="800" y="550.0" fill="#0f172a" font-size="14" font-family="DejaVu Sans, Arial, sans-serif" text-anchor="middle" dominant-baseline="middle"><tspan x="800" dy="0">Aplica&#231;&#245;es</tspan><tspan x="800" dy="16">- redefini&#231;&#227;o de n&#237;vel</tspan><tspan x="800" dy="16">- multiplicadores de tens&#227;o</tspan></text><line x1="300" y1="230.0" x2="200" y2="310.0" stroke="#1f4b99" fill="none" stroke-width="2" marker-end="url(#arrowhead)" /><line x1="300" y1="230.0" x2="400" y2="310.0" stroke="#1f4b99" fill="none" stroke-width="2" marker-end="url(#arrowhead)" /><line x1="200" y1="460.0" x2="200" y2="510.0" stroke="#1f4b99" fill="none" stroke-width="2" marker-end="url(#arrowhead)" /><line x1="400" y1="460.0" x2="400" y2="510.0" stroke="#1f4b99" fill="none" stroke-width="2" marker-end="url(#arrowhead)" /><line x1="700" y1="230.0" x2="600" y2="310.0" stroke="#1f4b99" fill="none" stroke-width="2" marker-end="url(#arrowhead)" /><line x1="700" y1="230.0" x2="800" y2="310.0" stroke="#1f4b99" fill="none" stroke-width="2" marker-end="url(#arrowhead)" /><line x1="600" y1="460.0" x2="600" y2="510.0" stroke="#1f4b99" fill="none" stroke-width="2" marker-end="url(#arrowhead)" /><line x1="800" y1="460.0" x2="800" y2="510.0" stroke="#1f4b99" fill="none" stroke-width="2" marker-end="url(#arrowhead)" /></svg>